<svg height="512" viewBox="0 0 64 64" width="512" xmlns="http://www.w3.org/2000/svg" xmlns:xlink="http://www.w3.org/1999/xlink"><linearGradient id="New_Gradient_Swatch_3" gradientUnits="userSpaceOnUse" x1="48" x2="48" y1="64.23" y2="-.015"><stop offset="0" stop-color="#006df0"/><stop offset="1" stop-color="#00e7f0"/></linearGradient><linearGradient id="New_Gradient_Swatch_3-2" x1="16" x2="16" xlink:href="#New_Gradient_Swatch_3" y1="64.23" y2="-.015"/><linearGradient id="New_Gradient_Swatch_3-3" x1="32" x2="32" xlink:href="#New_Gradient_Swatch_3" y1="64.23" y2="-.015"/><linearGradient id="New_Gradient_Swatch_3-5" x1="40" x2="40" xlink:href="#New_Gradient_Swatch_3" y1="64.23" y2="-.015"/><linearGradient id="New_Gradient_Swatch_3-6" x1="24" x2="24" xlink:href="#New_Gradient_Swatch_3" y1="64.23" y2="-.015"/><g id="No_connection" data-name="No connection"><path d="m46 30h4a1 1 0 0 0 1-1v-18a1 1 0 0 0 -1-1h-4a1 1 0 0 0 -1 1v18a1 1 0 0 0 1 1zm1-18h2v16h-2z" fill="url(#New_Gradient_Swatch_3)"/><path d="m14 30h4a1 1 0 0 0 1-1v-4a1 1 0 0 0 -1-1h-4a1 1 0 0 0 -1 1v4a1 1 0 0 0 1 1zm1-4h2v2h-2z" fill="url(#New_Gradient_Swatch_3-2)"/><path d="m59 2h-54a3 3 0 0 0 -3 3v40a3 3 0 0 0 3 3h19v6h-5a3 3 0 0 0 -3 3v5h32v-5a3 3 0 0 0 -3-3h-5v-6h19a3 3 0 0 0 3-3v-40a3 3 0 0 0 -3-3zm-14 54a1 1 0 0 1 1 1v3h-28v-3a1 1 0 0 1 1-1zm-19-2v-6h12v6zm34-9a1 1 0 0 1 -1 1h-54a1 1 0 0 1 -1-1v-40a1 1 0 0 1 1-1h54a1 1 0 0 1 1 1z" fill="url(#New_Gradient_Swatch_3-3)"/><path d="m57 6h-50a1 1 0 0 0 -1 1v34a1 1 0 0 0 1 1h50a1 1 0 0 0 1-1v-34a1 1 0 0 0 -1-1zm-1 34h-48v-32h48z" fill="url(#New_Gradient_Swatch_3-3)"/><path d="m38 30h4a1 1 0 0 0 1-1v-13a1 1 0 0 0 -1-1h-4a1 1 0 0 0 -1 1v13a1 1 0 0 0 1 1zm1-13h2v11h-2z" fill="url(#New_Gradient_Swatch_3-5)"/><path d="m22 30h4a1 1 0 0 0 1-1v-6a1 1 0 0 0 -1-1h-4a1 1 0 0 0 -1 1v6a1 1 0 0 0 1 1zm1-6h2v4h-2z" fill="url(#New_Gradient_Swatch_3-6)"/><g fill="url(#New_Gradient_Swatch_3-3)"><path d="m23.135 37.5a1 1 0 0 0 .865.5h16a1 1 0 0 0 .868-1.5l-5.868-10.265v-7.235a1 1 0 0 0 -1-1h-4a1 1 0 0 0 -1 1v7.235l-5.868 10.265a1 1 0 0 0 .003 1zm7.865-17.5h2v2.735l-.132-.231a1.04 1.04 0 0 0 -1.736 0l-.132.231zm1 5.016 6.276 10.984h-12.553z"/><path d="m32 27a1 1 0 0 0 -1 1v3a1 1 0 0 0 2 0v-3a1 1 0 0 0 -1-1z"/><circle cx="32" cy="34" r="1"/></g></g></svg>